<svg xmlns="http://www.w3.org/2000/svg" version="1.1" xmlns:xlink="http://www.w3.org/1999/xlink" xmlns:svgjs="http://svgjs.com/svgjs" width="600" height="960" preserveAspectRatio="none" viewBox="0 0 600 960"><g mask="url(&quot;#SvgjsMask1543&quot;)" fill="none"><rect width="600" height="960" x="0" y="0" fill="rgba(28, 34, 39, 1)"></rect><g transform="translate(-6, 28.8)" stroke-linecap="round" stroke="url(#SvgjsLinearGradient1544)"><path d="M111 195.335 L111 289.83500000000004" stroke-width="47.25"></path><path d="M111 360.71000000000004 L111 455.21000000000004" stroke-width="47.25"></path><path d="M111 526.085 L111 764.665" stroke-width="47.25"></path><path d="M174 346.315 L174 613.695" stroke-width="47.25"></path><path d="M237 216.625 L237 500.125" stroke-width="47.25"></path><path d="M237 571 L237 618.25" stroke-width="47.25"></path><path d="M237 689.125 L237 743.375" stroke-width="47.25"></path><path d="M300 280.315 L300 516.565" stroke-width="47.25"></path><path d="M300 587.44 L300 679.685" stroke-width="47.25"></path><path d="M363 156.105 L363 581.355" stroke-width="47.25"></path><path d="M363 652.23 L363 803.895" stroke-width="47.25"></path><path d="M426 250.255 L426 392.005" stroke-width="47.25"></path><path d="M426 462.88 L426 557.38" stroke-width="47.25"></path><path d="M426 628.255 L426 709.755" stroke-width="47.25"></path><path d="M489 330.295 L489 424.795" stroke-width="47.25"></path><path d="M489 495.67 L489 629.705" stroke-width="47.25"></path></g></g><defs><mask id="SvgjsMask1543"><rect width="600" height="960" fill="#ffffff"></rect></mask><linearGradient x1="11.400000000000006" y1="768.63552" x2="588.5999999999999" y2="191.43552" gradientUnits="userSpaceOnUse" id="SvgjsLinearGradient1544"><stop stop-color="#3a7cc3" offset="0"></stop><stop stop-color="rgba(33, 8, 12, 1)" offset="1"></stop></linearGradient></defs></svg>